<?xml version="1.0" standalone="no"?>
<!DOCTYPE svg PUBLIC "-//W3C//DTD SVG 20010904//EN"
 "http://www.w3.org/TR/2001/REC-SVG-20010904/DTD/svg10.dtd">
<svg version="1.0" xmlns="http://www.w3.org/2000/svg"
 width="1024.000000pt" height="1024.000000pt" viewBox="0 0 1024.000000 1024.000000"
 preserveAspectRatio="xMidYMid meet">

<g transform="translate(0.000000,1024.000000) scale(0.100000,-0.100000)"
fill="#000000" stroke="none">
<path d="M4990 7764 c-583 -37 -1086 -236 -1551 -615 -137 -113 -308 -282
-406 -404 -117 -146 -291 -449 -378 -659 -74 -180 -143 -464 -166 -690 -15
-150 -7 -512 15 -651 46 -291 133 -548 289 -849 249 -481 560 -825 951 -1050
361 -209 670 -314 1061 -361 255 -31 641 -8 905 54 557 131 993 387 1396 821
318 341 537 802 625 1311 30 177 38 548 15 749 -58 503 -251 968 -564 1360
-99 123 -334 358 -442 442 -357 276 -824 466 -1285 522 -124 15 -369 26 -465
20z m200 -28 c8 -2 -14 -4 -50 -5 -36 0 -59 3 -53 7 12 7 65 6 103 -2z m-127
-3 c-7 -2 -19 -2 -25 0 -7 3 -2 5 12 5 14 0 19 -2 13 -5z m252 -3 c14 -6 7 -7
-24 -5 -24 2 -46 6 -49 9 -8 9 51 6 73 -4z m-370 -6 c-46 -7 -125 -8 -125 -1
0 4 33 6 73 6 39 -1 63 -3 52 -5z m425 -4 c0 -5 -7 -7 -15 -4 -8 4 -15 8 -15
10 0 2 7 4 15 4 8 0 15 -4 15 -10z m-590 -4 c0 -9 -40 -13 -46 -5 -3 5 6 9 20
9 14 0 26 -2 26 -4z m688 -3 c-10 -2 -28 -2 -40 0 -13 2 -5 4 17 4 22 1 32 -1
23 -4z m92 -9 c0 -2 -16 -4 -36 -4 -19 0 -33 4 -30 8 5 8 66 4 66 -4z m-853 0
c-3 -3 -12 -4 -19 -1 -8 3 -5 6 6 6 11 1 17 -2 13 -5z m-62 -14 c-3 -5 -13
-10 -21 -10 -8 0 -12 5 -9 10 3 6 13 10 21 10 8 0 12 -4 9 -10z m973 -1 c-12
-7 -24 -7 -35 0 -15 9 -12 10 17 10 29 0 32 -1 18 -10z m-1028 -11 c0 -6 -3
-9 -6 -6 -3 4 -20 2 -37 -3 -40 -13 -91 -20 -84 -13 4 5 93 29 120 33 4 1 7
-4 7 -11z m1243 -33 c49 -13 92 -27 95 -30 4 -4 -4 -5 -18 -1 -113 30 -190 54
-175 55 6 0 50 -10 98 -24z m-1386 -1 c-3 -3 -12 -4 -19 -1 -8 3 -5 6 6 6 11
1 17 -2 13 -5z m-77 -18 c0 -2 -42 -18 -92 -36 -51 -18 -98 -37 -105 -42 -6
-5 -14 -5 -17 0 -3 4 12 14 32 21 20 7 46 17 57 22 55 25 125 45 125 35z
m1681 -51 c29 -14 43 -23 29 -19 -25 6 -65 21 -110 43 l-25 11 26 -4 c14 -3
50 -17 80 -31z m-1911 -29 c0 -7 -152 -77 -157 -73 -4 5 136 76 150 77 4 0 7
-2 7 -4z m2115 -54 c147 -70 258 -132 251 -139 -3 -3 -17 2 -31 11 -14 9 -25
13 -25 9 0 -5 -4 -3 -8 3 -11 18 -122 75 -133 69 -5 -4 -9 -1 -9 4 0 12 -123
73 -137 69 -4 -2 -19 5 -33 15 -48 34 6 16 125 -41z m-1345 -28 c0 -2 -11 -4
-25 -4 -14 0 -25 4 -25 9 0 4 11 6 25 3 14 -2 25 -6 25 -8z m47 10 c-3 -3 -12
-4 -19 -1 -8 3 -5 6 6 6 11 1 17 -2 13 -5z m80 0 c-3 -3 -12 -4 -19 -1 -8 3
-5 6 6 6 11 1 17 -2 13 -5z m246 -1 c-13 -2 -35 -2 -50 0 -16 2 -5 4 22 4 28
0 40 -2 28 -4z m147 -14 c27 -6 21 -7 -23 -3 -32 3 -68 9 -80 14 -25 11 45 3
103 -11z m-1475 -3 c-31 -21 -181 -100 -172 -90 12 13 170 103 182 103 5 1 1
-5 -10 -13z m845 -7 c-79 -13 -217 -40 -251 -49 -17 -5 -29 -5 -29 1 0 5 9 9
19 9 11 0 22 4 25 9 3 5 21 9 38 10 18 0 62 7 98 15 36 7 85 14 110 14 l45 0
-55 -9z m590 -14 c216 -25 407 -73 620 -156 385 -149 685 -368 939 -684 143
-177 222 -310 314 -525 129 -304 182 -542 194 -865 14 -420 -61 -792 -231
-1140 -155 -316 -368 -582 -621 -774 -362 -274 -683 -416 -1103 -487 -369 -62
-812 -18 -1212 121 -357 125 -713 380 -955 685 -254 321 -444 716 -522 1085
-26 124 -27 143 -27 405 0 258 2 283 27 411 64 328 202 676 365 924 216 328
609 651 986 811 216 92 458 159 661 183 50 6 101 13 115 15 67 9 339 4 450 -9z
m265 -10 c54 -19 28 -18 -85 5 l-95 20 70 -6 c39 -2 88 -11 110 -19z m-1145
-30 c0 -5 -126 -45 -142 -45 -5 0 -6 5 -3 10 3 6 17 10 29 10 13 0 39 7 57 15
34 14 59 19 59 10z m1286 -7 c6 -10 -13 -9 -46 2 -23 8 -22 8 8 7 19 -1 36 -5
38 -9z m119 -46 c-6 -7 -105 29 -105 38 0 4 24 -1 54 -13 30 -12 53 -23 51
-25z m-2165 -1 c0 -5 -28 -26 -62 -47 -35 -21 -81 -51 -103 -68 -22 -17 -47
-36 -55 -43 -215 -165 -482 -439 -561 -578 -16 -27 -38 -61 -50 -75 -19 -23
-19 -22 2 15 112 198 359 464 596 643 73 55 222 159 231 161 1 1 2 -3 2 -8z
m585 -1 c-102 -45 -197 -82 -201 -78 -6 6 186 87 206 87 10 0 8 -3 -5 -9z
m2340 -94 c90 -64 349 -308 443 -418 54 -63 24 -42 -42 29 -183 198 -317 320
-458 417 -54 37 -98 70 -98 73 0 7 36 -16 155 -101z m-711 85 c4 -5 -3 -7 -14
-4 -23 6 -26 13 -6 13 8 0 17 -4 20 -9z m174 -72 c75 -34 144 -67 152 -74 8
-7 30 -18 48 -26 17 -8 32 -17 32 -22 0 -4 -42 15 -92 42 -51 27 -138 68 -193
91 -105 44 -116 50 -97 50 7 0 74 -28 150 -61z m-2038 -14 c0 -3 -28 -19 -62
-36 -130 -65 -243 -137 -385 -246 -97 -74 -120 -84 -36 -15 79 66 220 165 290
204 32 18 61 37 65 42 4 6 8 8 8 4 0 -3 24 7 53 23 51 28 67 34 67 24z m2401
-192 c86 -56 311 -243 293 -243 -4 0 -39 28 -78 63 -81 72 -206 167 -283 216
-29 18 -53 35 -53 38 0 6 7 1 121 -74z m-3069 -285 c-67 -68 -160 -174 -207
-237 -47 -62 -85 -109 -85 -104 0 25 198 270 281 349 67 64 123 113 129 114 2
0 -51 -55 -118 -122z m3446 -53 c-3 -3 -22 16 -43 42 l-38 48 43 -42 c24 -23
42 -45 38 -48z m353 -31 c50 -64 123 -174 115 -174 -3 0 -28 35 -57 78 -28 42
-66 93 -85 114 -18 20 -38 47 -44 60 l-11 23 18 -21 c10 -12 39 -48 64 -80z
m-281 -39 c49 -56 76 -95 67 -95 -7 0 -127 148 -127 156 0 4 2 5 4 3 2 -2 27
-31 56 -64z m153 -207 c68 -106 69 -108 64 -108 -3 0 -25 30 -49 68 -63 94
-79 122 -73 122 3 0 29 -37 58 -82z m-4213 41 c-7 -11 -14 -18 -17 -15 -3 3 0
12 7 21 18 21 23 19 10 -6z m4500 -34 c14 -19 14 -19 -2 -6 -10 7 -18 18 -18
24 0 6 1 8 3 6 1 -2 9 -13 17 -24z m-4547 -42 c-32 -59 -53 -90 -53 -80 0 9
46 93 63 115 20 26 16 10 -10 -35z m4603 -56 c14 -27 23 -51 21 -53 -4 -4 -54
90 -65 121 -7 20 19 -21 44 -68z m-4337 16 c-12 -21 -49 -90 -82 -153 -62
-121 -76 -144 -57 -96 6 16 8 36 6 43 -3 8 -2 12 2 9 4 -2 25 30 47 72 22 42
43 79 46 82 3 3 16 24 29 47 13 24 26 41 28 38 2 -2 -6 -21 -19 -42z m4116
-134 c14 -28 25 -53 23 -55 -2 -2 -18 24 -36 57 -18 33 -28 58 -23 55 5 -3 21
-29 36 -57z m-4475 -6 c-15 -42 -53 -114 -57 -109 -2 2 10 33 27 70 31 67 48
89 30 39z m4759 -13 c11 -24 11 -24 -3 -6 -9 11 -16 24 -16 30 0 12 5 7 19
-24z m-221 -115 c43 -105 63 -160 54 -150 -8 8 -58 123 -89 205 -15 39 16 -10
35 -55z m271 -10 c0 -5 -4 -3 -9 5 -5 8 -9 22 -9 30 0 16 17 -16 18 -35z
m-4878 -8 c-10 -9 -11 -8 -5 6 3 10 9 15 12 12 3 -3 0 -11 -7 -18z m264 -47
c-10 -22 -22 -40 -26 -40 -4 0 2 20 14 44 27 55 37 51 12 -4z m-289 -21 c-18
-41 -21 -29 -4 18 7 19 14 30 16 25 1 -4 -4 -24 -12 -43z m-19 -61 c-3 -8 -6
-5 -6 6 -1 11 2 17 5 13 3 -3 4 -12 1 -19z m253 -59 c-11 -30 -18 -40 -15 -24
7 36 26 87 31 82 2 -2 -5 -28 -16 -58z m-273 -1 c-3 -8 -6 -5 -6 6 -1 11 2 17
5 13 3 -3 4 -12 1 -19z m4772 -73 c0 -5 -4 -3 -9 5 -5 8 -9 22 -9 30 0 16 17
-16 18 -35z m-4798 -26 c-5 -13 -10 -19 -10 -12 -1 15 10 45 15 40 3 -2 0 -15
-5 -28z m5073 -24 c4 -19 3 -25 -3 -15 -4 8 -11 29 -15 45 -4 19 -3 25 3 15 4
-8 11 -28 15 -45z m-4807 23 c-3 -8 -6 -5 -6 6 -1 11 2 17 5 13 3 -3 4 -12 1
-19z m4540 -10 c-3 -8 -6 -5 -6 6 -1 11 2 17 5 13 3 -3 4 -12 1 -19z m-4556
-39 c-5 -13 -10 -19 -10 -12 -1 15 10 45 15 40 3 -2 0 -15 -5 -28z m4587 -74
c0 -16 -2 -15 -8 5 -4 14 -8 34 -8 45 0 16 2 15 8 -5 4 -14 8 -34 8 -45z m249
33 c-3 -8 -6 -5 -6 6 -1 11 2 17 5 13 3 -3 4 -12 1 -19z m-4872 -118 c-9 -41
-17 -33 -9 9 4 17 9 30 11 27 3 -2 2 -19 -2 -36z m4642 -2 c-3 -8 -6 -5 -6 6
-1 11 2 17 5 13 3 -3 4 -12 1 -19z m-4660 -90 c-3 -7 -5 -2 -5 12 0 14 2 19 5
13 2 -7 2 -19 0 -25z m4683 -12 c0 -26 -6 -18 -14 19 -5 22 -4 26 4 15 5 -8
10 -24 10 -34z m-4696 -80 c-4 -31 -9 -54 -12 -52 -2 3 -1 30 3 61 3 31 9 55
11 52 3 -2 2 -30 -2 -61z m-257 12 c-3 -8 -6 -5 -6 6 -1 11 2 17 5 13 3 -3 4
-12 1 -19z m4960 -65 c-3 -10 -5 -2 -5 17 0 19 2 27 5 18 2 -10 2 -26 0 -35z
m250 25 c-3 -8 -6 -5 -6 6 -1 11 2 17 5 13 3 -3 4 -12 1 -19z m0 -70 c-2 -13
-4 -5 -4 17 -1 22 1 32 4 23 2 -10 2 -28 0 -40z m-236 -35 c0 -32 1 -96 2
-143 1 -47 -1 -98 -4 -115 -3 -16 -8 48 -10 143 -2 94 -1 172 4 172 4 0 7 -26
8 -57z m-4740 -63 c-10 -24 -10 -24 -7 5 3 17 6 46 7 65 l2 35 4 -40 c2 -23
-1 -52 -6 -65z m-4 -97 c-2 -16 -4 -5 -4 22 0 28 2 40 4 28 2 -13 2 -35 0 -50z
m-240 -25 c-3 -7 -5 -2 -5 12 0 14 2 19 5 13 2 -7 2 -19 0 -25z m240 -30 c-3
-8 -6 -5 -6 6 -1 11 2 17 5 13 3 -3 4 -12 1 -19z m-240 -10 c-3 -8 -6 -5 -6 6
-1 11 2 17 5 13 3 -3 4 -12 1 -19z m253 -59 c0 -5 -4 -9 -8 -9 -5 0 -9 7 -9
15 0 8 4 12 9 9 4 -3 8 -9 8 -15z m-3 -66 c-3 -10 -5 -2 -5 17 0 19 2 27 5 18
2 -10 2 -26 0 -35z m6 -38 c4 -8 3 -16 -1 -19 -4 -3 -9 4 -9 15 -2 23 3 25 10
4z m4712 -75 c-4 -28 -9 -49 -12 -47 -2 3 -1 28 3 56 4 28 9 50 11 47 3 -3 2
-28 -2 -56z m-4677 -145 c0 -16 -2 -15 -8 5 -4 14 -8 34 -8 45 0 16 2 15 8 -5
4 -14 8 -34 8 -45z m4659 33 c-3 -7 -5 -2 -5 12 0 14 2 19 5 13 2 -7 2 -19 0
-25z m-10 -55 c-3 -10 -5 -4 -5 12 0 17 2 24 5 18 2 -7 2 -21 0 -30z m-4628
-63 c1 -13 0 -13 -9 0 -5 8 -9 26 -9 40 l1 25 8 -25 c4 -14 8 -32 9 -40z
m4855 -84 c-3 -15 -8 -25 -11 -23 -2 3 -1 17 3 31 3 15 8 25 11 23 2 -3 1 -17
-3 -31z m-264 -33 c-10 -16 -11 -15 -6 7 3 14 6 32 7 40 1 8 4 5 6 -7 2 -12
-1 -30 -7 -40z m-4563 15 c-3 -8 -6 -5 -6 6 -1 11 2 17 5 13 3 -3 4 -12 1 -19z
m4519 -152 c-14 -36 -23 -66 -19 -66 3 0 1 -6 -5 -12 -5 -7 -23 -44 -40 -83
-45 -106 -105 -229 -117 -237 -5 -4 -6 -8 -2 -8 5 0 1 -7 -7 -16 -9 -8 -16
-22 -16 -30 0 -8 -4 -14 -9 -14 -10 0 -56 -71 -53 -82 1 -5 -1 -8 -6 -8 -4 0
-18 -18 -32 -40 -14 -22 -28 -40 -32 -40 -5 0 -8 -5 -8 -10 0 -6 -16 -29 -36
-50 -20 -22 -43 -48 -51 -59 -30 -43 -266 -270 -296 -285 -7 -3 -39 -26 -72
-51 -66 -49 -95 -68 -95 -61 0 2 47 38 104 80 350 255 634 646 782 1074 16 46
30 79 32 74 1 -5 -8 -39 -22 -76z m-4478 37 c12 -40 3 -34 -16 10 -6 15 -8 27
-3 27 4 0 13 -16 19 -37z m52 -128 c0 -5 -5 -3 -10 5 -5 8 -10 20 -10 25 0 6
5 3 10 -5 5 -8 10 -19 10 -25z m4663 15 c-3 -11 -10 -23 -16 -27 -5 -3 -8 -2
-5 3 3 5 8 17 11 27 9 24 16 22 10 -3z m-4909 -66 c3 -8 2 -12 -4 -9 -6 3 -10
10 -10 16 0 14 7 11 14 -7z m276 -19 c0 -5 -5 -3 -10 5 -5 8 -10 20 -10 25 0
6 5 3 10 -5 5 -8 10 -19 10 -25z m51 -92 c191 -351 356 -564 594 -768 101 -87
340 -248 428 -288 31 -15 57 -29 57 -32 0 -3 -8 -2 -17 3 -10 5 -45 22 -78 37
-33 16 -74 39 -91 52 -17 13 -34 23 -37 23 -8 0 -203 136 -235 164 -70 61
-284 279 -323 328 -24 31 -52 67 -63 80 -26 33 -136 198 -136 205 0 3 -8 17
-19 31 -25 37 -134 242 -128 242 3 0 25 -35 48 -77z m-266 -23 c19 -36 38 -87
31 -79 -7 7 -56 99 -56 105 0 12 11 1 25 -26z m4759 -19 c-9 -23 -18 -40 -20
-38 -2 2 4 22 13 45 9 23 18 40 20 38 2 -2 -4 -22 -13 -45z m-45 -97 c-28 -62
-60 -116 -67 -110 -3 3 0 11 6 19 6 7 25 41 42 75 36 72 48 83 19 16z m-4656
-6 c10 -16 14 -28 9 -28 -8 0 -32 43 -32 57 0 7 1 6 23 -29z m45 -93 c-3 -3
-9 2 -12 12 -6 14 -5 15 5 6 7 -7 10 -15 7 -18z m22 -35 c6 -11 8 -20 6 -20
-3 0 -10 9 -16 20 -6 11 -8 20 -6 20 3 0 10 -9 16 -20z m4488 -48 c-43 -76
-151 -231 -160 -232 -7 0 183 289 190 290 2 0 -12 -26 -30 -58z m-4411 -74
c11 -24 116 -176 181 -263 20 -27 32 -46 25 -42 -28 18 -241 327 -225 327 5 0
13 -10 19 -22z m4199 -225 c-87 -110 -413 -413 -488 -454 -32 -17 -19 -3 40
44 150 120 367 324 449 425 53 63 51 51 -1 -15z m-3956 -111 c0 -15 95 -107
206 -200 60 -51 116 -98 124 -105 37 -33 129 -97 175 -122 28 -15 57 -33 65
-40 8 -7 39 -25 68 -39 28 -14 52 -29 52 -31 0 -7 -86 37 -183 95 -92 54 -255
180 -384 297 -87 78 -152 153 -134 153 6 0 11 -4 11 -8z m3236 -196 c-31 -24
-137 -85 -123 -70 10 10 140 93 147 94 3 0 -8 -11 -24 -24z m-166 -101 c-7 -8
-18 -15 -24 -15 -6 0 -2 7 8 15 25 19 32 19 16 0z m-60 -35 c-14 -11 -32 -19
-40 -19 -8 0 1 8 20 19 45 25 51 25 20 0z m-2019 -60 c35 -16 57 -29 49 -29
-18 0 -140 57 -124 58 6 1 40 -12 75 -29z m2439 26 c0 -13 -272 -176 -293
-176 -7 0 0 7 15 14 40 21 207 121 243 145 31 22 35 24 35 17z m-536 -20 c-29
-20 -104 -50 -110 -43 -3 3 17 13 45 22 28 9 53 21 56 26 4 5 11 9 18 9 6 0 2
-6 -9 -14z m-1774 -56 c8 -5 11 -10 5 -10 -5 0 -17 5 -25 10 -8 5 -10 10 -5
10 6 0 17 -5 25 -10z m1650 6 c0 -2 -20 -11 -45 -20 -25 -8 -43 -11 -40 -6 8
13 85 36 85 26z m-1560 -36 c0 -5 -7 -7 -15 -4 -8 4 -15 8 -15 10 0 2 7 4 15
4 8 0 15 -4 15 -10z m41 -18 c-7 -2 -18 1 -23 6 -8 8 -4 9 13 5 13 -4 18 -8
10 -11z m1406 12 c-3 -3 -12 -4 -19 -1 -8 3 -5 6 6 6 11 1 17 -2 13 -5z m-67
-19 c-19 -7 -44 -13 -55 -13 -11 0 -2 5 20 13 53 17 80 17 35 0z m-1163 -31
c-3 -3 -12 -4 -19 -1 -8 3 -5 6 6 6 11 1 17 -2 13 -5z m1040 0 c-3 -3 -12 -4
-19 -1 -8 3 -5 6 6 6 11 1 17 -2 13 -5z m-984 -11 c-7 -2 -19 -2 -25 0 -7 3
-2 5 12 5 14 0 19 -2 13 -5z m930 0 c-7 -2 -19 -2 -25 0 -7 3 -2 5 12 5 14 0
19 -2 13 -5z m-876 -9 c-3 -3 -12 -4 -19 -1 -8 3 -5 6 6 6 11 1 17 -2 13 -5z
m753 -8 c0 -2 -7 -7 -16 -10 -8 -3 -12 -2 -9 4 6 10 25 14 25 6z m-612 -13
c-10 -2 -28 -2 -40 0 -13 2 -5 4 17 4 22 1 32 -1 23 -4z m1392 -2 c0 -8 -110
-61 -126 -61 -7 1 112 67 124 70 1 0 2 -4 2 -9z m-897 -8 c-7 -2 -21 -2 -30 0
-10 3 -4 5 12 5 17 0 24 -2 18 -5z m-210 -10 c-18 -2 -48 -2 -65 0 -18 2 -4 4
32 4 36 0 50 -2 33 -4z m-1103 -28 c25 -13 41 -24 35 -24 -5 0 -30 11 -55 24
-25 13 -40 24 -35 24 6 0 30 -11 55 -24z m154 -61 c17 -7 24 -13 16 -13 -8 0
-33 8 -55 19 -43 21 -12 16 39 -6z m1861 16 c-27 -12 -43 -12 -25 0 8 5 22 9
30 9 10 0 8 -3 -5 -9z m-60 -20 c-11 -5 -27 -9 -35 -9 -9 0 -8 4 5 9 11 5 27
9 35 9 9 0 8 -4 -5 -9z m-89 -25 c-20 -15 -36 -19 -36 -10 0 5 38 23 50 24 3
0 -4 -6 -14 -14z m-1486 -47 c0 -5 -9 -4 -20 2 -11 6 -20 12 -20 14 0 2 9 2
20 -1 11 -3 20 -9 20 -15z m1357 6 c-3 -3 -12 -4 -19 -1 -8 3 -5 6 6 6 11 1
17 -2 13 -5z m-1257 -26 c16 -5 8 -6 -25 -2 -27 3 -54 10 -60 15 -10 10 39 3
85 -13z m1190 12 c0 -5 -8 -10 -17 -10 -15 0 -16 2 -3 10 19 12 20 12 20 0z
m-53 -16 c-3 -3 -12 -4 -19 -1 -8 3 -5 6 6 6 11 1 17 -2 13 -5z m-1014 -21
c-7 -2 -21 -2 -30 0 -10 3 -4 5 12 5 17 0 24 -2 18 -5z m882 -3 c-75 -14 -127
-18 -119 -10 9 8 65 16 129 17 23 1 21 -1 -10 -7z m-637 -27 c-15 -2 -42 -2
-60 0 -18 2 -6 4 27 4 33 0 48 -2 33 -4z m62 3 c0 -3 -4 -8 -10 -11 -5 -3 -10
-1 -10 4 0 6 5 11 10 11 6 0 10 -2 10 -4z m106 -14 c-32 -2 -63 1 -67 5 -4 4
22 6 59 3 l67 -5 -59 -3z m262 11 c-10 -2 -26 -2 -35 0 -10 3 -2 5 17 5 19 0
27 -2 18 -5z"/>
<path d="M4317 6854 c-168 -37 -306 -137 -390 -284 -34 -60 -77 -221 -77 -291
0 -64 30 -190 58 -246 11 -21 41 -67 67 -101 l46 -64 -39 -91 c-22 -51 -63
-149 -92 -218 l-52 -127 -86 -4 c-190 -10 -337 -123 -414 -317 -18 -47 -22
-76 -22 -186 -1 -128 0 -131 32 -198 54 -109 128 -169 271 -218 123 -43 315
-9 415 74 l29 24 265 -178 c145 -98 269 -180 274 -181 5 -2 1 -23 -8 -48 -13
-34 -17 -80 -18 -185 l-1 -140 47 -91 c66 -128 135 -200 247 -258 113 -58 182
-76 297 -76 185 0 327 61 449 192 85 92 149 219 165 328 41 287 -150 586 -431
675 -64 20 -101 25 -185 25 -92 0 -114 -4 -182 -30 -84 -32 -150 -71 -196
-115 -19 -18 -34 -24 -42 -19 -43 32 -337 233 -421 289 l-103 67 0 70 c0 66
-27 196 -52 255 -7 16 -25 47 -40 70 -25 37 -27 46 -17 65 7 13 50 111 95 218
68 160 86 194 101 192 10 -1 65 -5 123 -9 99 -5 111 -4 191 24 46 16 111 47
143 68 73 48 164 157 213 254 l38 74 -1 121 c-1 138 -19 219 -67 311 -40 76
-146 184 -214 218 -123 63 -296 88 -416 61z m188 -16 c71 -3 25 -9 -66 -9
-118 -1 -133 3 -49 10 36 4 68 5 72 3 4 -1 23 -3 43 -4z m-181 -16 c2 -4 -9
-9 -25 -10 -83 -6 -220 -88 -285 -168 -30 -39 -77 -121 -90 -159 -4 -12 -8
-15 -11 -8 -2 7 12 44 33 83 59 113 184 218 303 254 55 17 68 19 75 8z m302
-7 c75 -22 154 -69 204 -121 25 -26 39 -43 31 -39 -8 5 -27 23 -43 41 -32 36
-146 96 -223 118 -27 8 -43 14 -34 15 8 1 38 -6 65 -14z m310 -262 c15 -29 25
-56 22 -58 -3 -3 -13 14 -23 37 -10 24 -30 59 -44 78 -22 31 -22 33 -3 16 12
-11 34 -43 48 -73z m-404 48 c4 -3 -26 -5 -67 -3 -67 4 -81 1 -142 -27 -37
-18 -76 -40 -87 -49 -39 -35 -81 -109 -99 -172 -17 -64 -18 -64 -12 -15 18
165 199 300 370 277 17 -3 33 -8 37 -11z m95 -54 c28 -21 60 -50 70 -65 21
-31 52 -118 52 -147 0 -11 -8 5 -18 35 -33 103 -74 157 -148 197 -18 10 -33
21 -33 26 0 10 11 3 77 -46z m-59 2 c128 -64 185 -219 132 -361 -60 -161 -224
-225 -382 -151 -121 58 -175 141 -166 256 18 220 228 350 416 256z m420 -214
c-1 -49 -1 -49 -8 15 -4 36 -11 81 -14 100 -3 21 0 15 9 -15 8 -27 14 -72 13
-100z m-1092 39 c-4 -20 -10 -34 -12 -31 -3 3 -2 21 2 41 3 21 9 35 11 32 3
-3 2 -21 -1 -42z m-19 -126 c-3 -7 -5 -2 -5 12 0 14 2 19 5 13 2 -7 2 -19 0
-25z m248 23 c3 -5 2 -12 -3 -15 -5 -3 -9 1 -9 9 0 17 3 19 12 6z m30 -111 c9
-19 33 -52 53 -72 20 -21 33 -38 28 -38 -29 0 -117 135 -115 177 0 12 3 10 8
-7 5 -14 16 -41 26 -60z m840 23 c-10 -40 -17 -20 -9 23 5 24 9 32 12 21 2
-10 1 -30 -3 -44z m-278 -40 c-14 -26 -37 -59 -51 -72 -36 -34 -33 -17 4 22
17 18 38 54 48 80 9 27 18 42 20 34 2 -9 -8 -37 -21 -64z m-817 10 c0 -32 -5
-28 -14 10 -4 19 -3 26 4 22 5 -3 10 -18 10 -32z m1073 -45 c-42 -109 -170
-257 -260 -302 -70 -35 -81 -33 -17 3 28 15 62 38 75 49 12 12 27 22 32 22 5
0 7 9 4 19 -3 13 0 18 8 15 11 -5 34 19 89 87 22 29 66 119 66 137 0 6 4 12
10 12 5 0 2 -19 -7 -42z m-1040 -53 c27 -51 34 -63 71 -108 21 -27 36 -50 33
-53 -14 -14 -121 150 -131 201 -5 29 -5 29 5 5 6 -14 16 -34 22 -45z m404 -51
c32 -13 51 -24 43 -24 -22 0 -116 46 -126 61 -7 12 -5 12 9 0 9 -7 42 -24 74
-37z m293 42 c0 -3 -15 -14 -32 -26 l-33 -22 30 26 c31 27 35 29 35 22z m-80
-51 c-7 -8 -20 -15 -29 -15 -11 1 -8 5 9 15 32 18 35 18 20 0z m-107 -22 c-7
-2 -19 -2 -25 0 -7 3 -2 5 12 5 14 0 19 -2 13 -5z m44 1 c-3 -3 -12 -4 -19 -1
-8 3 -5 6 6 6 11 1 17 -2 13 -5z m-435 -117 c-5 -7 -39 -86 -76 -177 -72 -176
-116 -273 -122 -267 -2 2 2 17 10 33 8 16 49 112 91 214 42 102 81 190 86 196
5 6 5 15 1 19 -4 5 -1 5 6 1 8 -5 10 -12 4 -19z m573 -87 c-11 -5 -27 -9 -35
-9 -13 -1 -13 0 0 9 8 5 24 9 35 9 l20 0 -20 -9z m-345 -19 c0 -5 -7 -11 -14
-14 -10 -4 -13 -1 -9 9 6 15 23 19 23 5z m77 3 c-3 -3 -12 -4 -19 -1 -8 3 -5
6 6 6 11 1 17 -2 13 -5z m156 -6 c-6 -10 -120 -10 -126 0 -3 4 26 7 63 7 37 0
66 -3 63 -7z m50 5 c-7 -2 -19 -2 -25 0 -7 3 -2 5 12 5 14 0 19 -2 13 -5z
m-347 -134 c-30 -79 -88 -203 -80 -169 4 14 19 52 34 85 25 55 38 89 54 139 4
10 9 17 11 14 3 -3 -6 -34 -19 -69z m-100 -236 c-8 -15 -15 -25 -16 -21 0 12
23 58 27 54 3 -2 -2 -17 -11 -33z m-289 19 c6 -4 -23 -8 -65 -9 -43 -2 -90 -6
-107 -9 -40 -9 -25 6 17 16 43 10 140 12 155 2z m-207 -26 c0 -2 -19 -13 -43
-24 -71 -33 -143 -111 -183 -197 -33 -72 -54 -102 -34 -50 44 116 108 196 195
246 47 27 65 34 65 25z m471 -49 c-10 -9 -11 -8 -5 6 3 10 9 15 12 12 3 -3 0
-11 -7 -18z m74 -202 c14 -43 29 -115 32 -159 7 -96 -2 -100 -11 -6 -3 36 -8
75 -11 88 -3 12 -7 30 -9 40 -2 9 -16 47 -31 82 -38 92 -40 99 -16 64 11 -17
32 -66 46 -109z m-355 39 c0 -2 -17 -4 -37 -4 -24 0 -33 3 -25 9 12 7 62 4 62
-5z m-112 -29 c-20 -14 -41 -25 -45 -25 -15 0 52 49 67 50 8 0 -2 -11 -22 -25z
m182 -8 c15 -12 37 -39 48 -59 32 -55 27 -59 -7 -6 -16 25 -47 58 -68 73 -21
15 -30 25 -19 21 10 -3 30 -16 46 -29z m-35 -11 c13 -9 36 -32 52 -52 53 -71
32 -194 -45 -252 -30 -23 -45 -27 -98 -27 -58 0 -66 3 -99 35 -76 73 -82 137
-22 227 56 83 146 112 212 69z m-216 -38 c-12 -13 -27 -36 -35 -53 -7 -16 -13
-23 -14 -16 0 18 49 91 62 91 5 0 -1 -10 -13 -22z m-284 -103 c-4 -42 -10 -74
-12 -71 -3 3 -2 39 2 81 4 42 9 74 12 71 3 -2 2 -39 -2 -81z m595 -101 c-23
-47 -93 -114 -119 -114 -9 0 -3 8 14 18 37 23 93 86 106 119 5 13 10 41 11 61
l1 37 4 -38 c3 -25 -3 -53 -17 -83z m-353 -9 c16 -29 73 -81 108 -99 17 -9 24
-16 17 -16 -19 0 -75 40 -104 75 -35 41 -48 70 -47 97 1 19 2 18 8 -7 4 -16
12 -39 18 -50z m848 -168 c172 -115 285 -195 300 -210 21 -22 -61 32 -375 246
-19 13 -61 41 -93 63 -32 21 -61 42 -64 47 -7 12 54 -27 232 -146z m-1088 111
c-3 -7 -5 -2 -5 12 0 14 2 19 5 13 2 -7 2 -19 0 -25z m99 -169 c19 -20 55 -46
80 -59 25 -12 43 -24 40 -27 -7 -7 -95 44 -129 76 -29 26 -87 129 -87 153 0 7
14 -14 31 -47 16 -33 46 -76 65 -96z m349 111 c-3 -5 -16 -10 -28 -9 -20 1
-20 2 3 9 14 4 26 8 28 9 2 1 0 -3 -3 -9z m1365 -104 c0 -2 -18 -6 -40 -8 -22
-2 -40 0 -40 4 0 5 18 8 40 8 22 0 40 -2 40 -4z m40 -6 c0 -5 -7 -10 -15 -10
-8 0 -15 5 -15 10 0 6 7 10 15 10 8 0 15 -4 15 -10z m165 -22 c108 -39 208
-112 275 -203 40 -55 83 -142 93 -190 6 -28 6 -28 -9 5 -53 120 -93 185 -140
232 -51 51 -159 128 -179 128 -5 0 -23 7 -40 16 -16 8 -59 22 -95 29 -59 13
-60 14 -15 9 28 -3 77 -14 110 -26z m-1306 9 c-2 -2 -22 -17 -44 -34 -22 -17
-51 -33 -65 -37 -15 -5 -8 3 20 20 25 16 54 36 64 46 11 10 22 16 24 13 3 -3
3 -6 1 -8z m956 -7 c-74 -24 -82 -24 -30 0 22 10 51 19 65 19 14 0 -1 -8 -35
-19z m-875 -36 c0 -3 -13 4 -30 16 -16 12 -30 24 -30 26 0 3 14 -4 30 -16 17
-12 30 -24 30 -26z m777 -4 c-14 -11 -29 -20 -34 -20 -5 0 -28 -16 -50 -35
-43 -37 -65 -46 -42 -18 16 19 129 93 143 93 5 0 -3 -9 -17 -20z m-680 -52
c43 -29 80 -56 81 -60 2 -5 8 -8 12 -8 5 0 37 -20 72 -44 35 -23 83 -55 108
-69 42 -24 133 -98 100 -81 -31 17 -460 304 -460 309 0 10 11 4 87 -47z m-574
0 c14 -1 24 -6 21 -10 -2 -4 -26 0 -52 7 -26 8 -48 15 -49 15 -2 0 -3 4 -3 9
0 5 13 3 29 -5 15 -8 40 -15 54 -16z m202 2 c-16 -4 -39 -8 -50 -8 -16 0 -15
2 5 8 14 4 36 8 50 8 22 0 22 -1 -5 -8z m-92 -17 c-13 -2 -33 -2 -45 0 -13 2
-3 4 22 4 25 0 35 -2 23 -4z m1369 -134 c-103 -20 -220 -120 -269 -228 -32
-72 -30 -173 4 -238 13 -24 19 -43 14 -43 -5 0 -18 22 -30 49 -32 75 -29 164
9 247 52 115 189 224 280 222 34 0 34 0 -8 -9z m128 1 c20 -6 21 -8 5 -8 -11
0 -33 4 -50 8 -27 7 -27 8 -5 8 14 0 36 -4 50 -8z m15 -41 c67 -25 141 -95
175 -165 33 -68 34 -179 3 -247 -33 -72 -75 -120 -135 -153 -48 -26 -62 -29
-148 -29 -85 0 -100 3 -140 27 -106 62 -170 160 -170 258 1 100 62 213 148
272 87 60 174 72 267 37z m148 -70 c34 -39 77 -121 77 -146 0 -10 -11 9 -25
41 -24 60 -110 160 -147 172 -10 3 -18 10 -18 15 0 14 80 -44 113 -82z m-802
-68 c-6 -10 -15 -61 -22 -112 -14 -119 -22 -130 -13 -19 6 78 25 150 39 150 3
0 1 -8 -4 -19z m1128 -71 c1 -13 0 -13 -9 0 -5 8 -9 26 -9 40 l1 25 8 -25 c4
-14 8 -32 9 -40z m-2 -122 c-3 -7 -5 -2 -5 12 0 14 2 19 5 13 2 -7 2 -19 0
-25z m-12 -105 c-9 -31 -24 -66 -32 -78 -15 -19 -15 -19 -8 0 29 75 45 123 46
145 1 17 3 20 6 8 2 -10 -3 -44 -12 -75z m-1143 52 c3 -14 1 -25 -3 -25 -5 0
-9 11 -9 25 0 14 2 25 4 25 2 0 6 -11 8 -25z m893 -32 c-9 -15 -13 -19 -9 -8
3 11 9 31 12 45 4 18 7 20 10 8 2 -9 -4 -29 -13 -45z m-852 -113 c17 -36 39
-78 51 -95 18 -27 18 -28 1 -15 -19 16 -96 171 -94 193 0 7 3 6 6 -3 3 -8 19
-44 36 -80z m802 24 c-36 -44 -116 -104 -139 -104 -5 0 10 13 35 28 24 16 64
51 89 79 56 63 67 60 15 -3z m-455 -61 c0 -10 -63 45 -76 66 -10 16 1 9 30
-19 25 -24 46 -46 46 -47z m703 10 c-12 -36 -94 -142 -135 -178 -47 -40 -165
-101 -213 -110 -24 -5 -23 -3 10 11 153 63 230 123 300 235 39 61 49 72 38 42z
m-659 -42 c-2 -3 -12 3 -22 13 -16 17 -16 18 5 5 12 -7 20 -15 17 -18z m57
-16 c19 -8 27 -14 19 -14 -14 0 -72 28 -59 29 4 0 22 -7 40 -15z m189 -4 c0
-10 -78 -26 -87 -18 -2 3 15 10 39 15 23 5 44 10 46 11 1 1 2 -3 2 -8z m-455
-140 c26 -19 151 -72 193 -82 26 -6 61 -15 77 -19 26 -7 27 -8 6 -9 -93 -4
-304 98 -364 176 -15 20 -7 16 28 -15 28 -24 55 -47 60 -51z m425 -101 c0 -5
-12 -10 -27 -9 -25 0 -26 1 -8 9 27 12 35 12 35 0z m53 3 c-7 -2 -21 -2 -30 0
-10 3 -4 5 12 5 17 0 24 -2 18 -5z m-136 -9 c-3 -3 -12 -4 -19 -1 -8 3 -5 6 6
6 11 1 17 -2 13 -5z"/>
<path d="M6263 5789 c-231 -73 -346 -294 -283 -547 41 -167 140 -282 284 -332
99 -34 271 -22 374 27 74 35 169 130 206 208 53 109 46 296 -15 418 -97 191
-353 294 -566 226z m292 -25 c77 -26 77 -36 -1 -12 -47 15 -98 22 -161 22 -51
1 -84 4 -75 8 27 12 182 0 237 -18z m-310 -11 c-81 -33 -170 -107 -187 -154
-8 -25 -28 -41 -28 -23 0 15 64 96 99 123 42 34 117 71 141 70 8 0 -3 -7 -25
-16z m425 -39 c69 -46 161 -164 160 -205 -1 -8 -13 9 -27 36 -37 72 -77 119
-130 154 -25 17 -42 31 -37 31 5 0 21 -7 34 -16z m-656 -205 c-8 -25 -16 -82
-17 -130 -2 -94 -17 -100 -17 -8 0 52 36 197 46 187 2 -3 -3 -25 -12 -49z
m477 37 c54 -23 142 -116 126 -133 -3 -3 -12 8 -21 25 -21 40 -82 92 -117 99
-16 3 -32 10 -35 14 -8 13 9 11 47 -5z m-130 -11 c-42 -19 -52 -19 -27 0 11 8
29 15 40 15 16 -1 12 -5 -13 -15z m147 -33 c40 -18 81 -75 89 -125 7 -47 -27
-118 -73 -154 -141 -107 -330 68 -239 222 45 77 132 99 223 57z m-239 -43
c-14 -20 -25 -54 -29 -93 l-7 -61 -2 55 c-1 45 4 64 26 98 15 23 29 39 31 37
2 -2 -6 -18 -19 -36z m580 -22 c1 -10 -3 -15 -9 -12 -5 3 -10 21 -9 38 0 27 2
29 9 12 5 -11 9 -28 9 -38z m6 -173 c-4 -35 -10 -66 -13 -68 -4 -2 -3 35 3 82
5 48 11 78 13 68 2 -10 1 -47 -3 -82z m-527 -62 c16 -12 49 -27 73 -33 39 -11
49 -9 85 9 39 20 72 49 109 97 15 18 15 17 1 -11 -18 -37 -80 -94 -102 -94 -9
0 -14 -6 -11 -13 4 -10 -6 -12 -43 -7 -67 9 -140 49 -172 96 -37 53 -36 68 1
17 16 -22 42 -50 59 -61z m-315 46 c2 -13 8 -31 12 -40 4 -10 3 -18 -2 -18 -5
0 -14 20 -20 45 -5 24 -7 42 -3 40 4 -3 10 -15 13 -27z m28 -94 c5 -15 8 -29
5 -31 -2 -2 -8 10 -14 26 -13 38 -5 41 9 5z m775 -20 c-13 -25 -43 -66 -67
-91 -44 -46 -126 -100 -136 -90 -3 3 11 12 30 21 34 14 157 130 157 148 0 9
30 58 36 58 2 0 -7 -21 -20 -46z m-723 -63 c25 -43 84 -91 139 -114 27 -11 46
-22 44 -24 -6 -6 -91 32 -124 56 -30 21 -98 111 -85 111 5 0 16 -13 26 -29z
m482 -136 c-16 -8 -52 -14 -80 -13 -50 1 -50 1 13 8 34 4 65 10 69 13 3 4 11
7 17 6 6 0 -2 -7 -19 -14z m-190 -15 c34 -7 30 -8 -24 -4 -36 2 -67 7 -69 9
-8 8 49 5 93 -5z"/>
</g>
</svg>
