<?xml version="1.0" standalone="no"?>
<!DOCTYPE svg PUBLIC "-//W3C//DTD SVG 20010904//EN"
 "http://www.w3.org/TR/2001/REC-SVG-20010904/DTD/svg10.dtd">
<svg version="1.0" xmlns="http://www.w3.org/2000/svg"
 width="1024.000000pt" height="1024.000000pt" viewBox="0 0 1024.000000 1024.000000"
 preserveAspectRatio="xMidYMid meet">

<g transform="translate(0.000000,1024.000000) scale(0.100000,-0.100000)"
fill="currentColor" stroke="none">
<path d="M5154 5880 c-107 -22 -202 -101 -229 -194 -8 -27 -15 -89 -15 -138
l0 -88 -75 0 -75 0 0 -105 0 -105 75 0 75 0 0 -375 0 -375 125 0 125 0 0 375
0 375 115 0 115 0 0 105 0 105 -116 0 -116 0 4 74 c3 62 7 79 28 100 33 36 92
50 152 38 l48 -9 0 107 c0 103 -1 108 -22 114 -32 8 -164 6 -214 -4z"/>
<path d="M5612 5850 c-71 -44 -79 -144 -16 -200 29 -25 43 -30 85 -30 95 0
146 52 136 139 -4 36 -13 52 -41 78 -30 28 -43 33 -83 33 -30 0 -60 -7 -81
-20z"/>
<path d="M6015 5861 c-63 -28 -93 -117 -61 -180 36 -69 131 -92 197 -48 42 28
59 60 59 115 0 34 -6 49 -33 79 -30 32 -40 36 -88 39 -30 2 -63 0 -74 -5z"/>
<path d="M1290 5170 l0 -670 135 0 135 0 0 235 0 235 160 0 c178 0 238 9 325
50 137 65 211 175 221 330 14 201 -62 358 -210 430 -101 50 -184 60 -492 60
l-274 0 0 -670z m609 404 c37 -21 61 -43 74 -68 41 -78 31 -178 -24 -240 -48
-55 -95 -69 -251 -74 l-138 -4 0 212 0 212 143 -3 c137 -4 144 -5 196 -35z"/>
<path d="M7775 5828 c-44 -126 -381 -1073 -420 -1181 l-53 -148 136 3 136 3
51 147 50 148 260 0 260 0 51 -148 51 -147 131 -3 c73 -1 132 0 132 2 0 6
-160 451 -351 974 -71 195 -129 356 -129 358 0 2 -68 4 -150 4 -112 0 -152 -3
-155 -12z m194 -403 c75 -206 141 -398 137 -402 -2 -2 -82 -2 -178 -1 l-174 3
85 257 c46 142 85 257 87 255 1 -1 20 -51 43 -112z"/>
<path d="M8690 5170 l0 -670 135 0 135 0 0 670 0 670 -135 0 -135 0 0 -670z"/>
<path d="M4180 5585 l0 -125 -70 0 -70 0 0 -105 0 -105 69 0 70 0 3 -282 c3
-271 4 -285 26 -333 30 -64 55 -91 117 -123 60 -31 188 -41 278 -22 l57 11 0
111 c0 93 -2 109 -15 104 -42 -16 -113 -17 -148 -2 -62 25 -67 50 -67 311 l0
225 115 0 115 0 0 105 0 105 -115 0 -115 0 0 125 0 125 -125 0 -125 0 0 -125z"/>
<path d="M2683 5469 c-188 -31 -330 -159 -379 -342 -18 -69 -18 -218 1 -290
42 -162 151 -279 308 -329 88 -28 248 -28 337 0 207 67 330 244 330 478 0 324
-265 538 -597 483z m209 -230 c81 -41 128 -136 128 -259 0 -88 -22 -157 -65
-207 -48 -56 -104 -76 -194 -71 -92 5 -143 38 -186 123 -27 53 -30 67 -30 155
0 88 3 102 30 155 19 38 45 69 70 87 69 49 169 55 247 17z"/>
<path d="M5803 5469 c-178 -30 -317 -143 -374 -304 -14 -38 -23 -94 -27 -155
-15 -309 183 -522 488 -523 153 -1 270 44 366 140 142 142 177 390 82 591 -87
186 -307 289 -535 251z m192 -227 c87 -42 135 -133 135 -256 0 -93 -21 -162
-65 -213 -48 -56 -104 -76 -194 -71 -60 3 -75 8 -108 34 -82 67 -107 133 -101
269 5 96 19 137 67 188 65 70 180 92 266 49z"/>
<path d="M3792 5451 c-59 -20 -117 -69 -138 -116 -12 -28 -13 -26 -14 48 l0
77 -125 0 -125 0 0 -480 0 -480 124 0 125 0 3 278 c3 272 3 278 28 326 45 87
113 126 224 126 l57 0 -3 118 -3 117 -50 2 c-29 2 -72 -5 -103 -16z"/>
<path d="M6360 5455 c0 -6 246 -621 329 -823 50 -123 50 -123 35 -162 -18 -45
-72 -97 -110 -106 -14 -4 -48 -4 -75 -1 l-49 6 0 -109 0 -109 36 -7 c118 -22
268 28 344 114 58 65 83 124 300 687 106 275 194 503 197 508 2 4 -56 7 -129
7 l-133 0 -98 -283 c-54 -155 -105 -310 -114 -345 l-15 -62 -58 167 c-31 93
-86 248 -121 345 l-64 178 -137 0 c-76 0 -138 -2 -138 -5z"/>
</g>
</svg>
